<?xml version="1.0" encoding="utf-8"?>
<!-- Generator: Adobe Illustrator 25.4.1, SVG Export Plug-In . SVG Version: 6.00 Build 0)  -->
<svg version="1.1" id="Layer_1" xmlns="http://www.w3.org/2000/svg" xmlns:xlink="http://www.w3.org/1999/xlink" x="0px" y="0px"
	 viewBox="0 0 111.4 37" style="enable-background:new 0 0 111.4 37;" xml:space="preserve">
<style type="text/css">
	.st0{fill:#06182C;}
	.st1{fill:#0052FF;}
</style>
<path class="st0" d="M51.5,18.1H41.2v-0.9h12.8V13H36.8v14.4h17.1v-4.2H41.2v-0.9h10.3V18.1z M59.8,19.4v8h-4.3V14.6
	c0-0.1,0-0.3,0.1-0.5c0.1-0.2,0.2-0.4,0.4-0.5c0.1-0.2,0.3-0.3,0.4-0.4c0.1-0.1,0.3-0.2,0.4-0.2h1.5c0.3,0,0.8,0.3,1.6,0.9l8.9,7.1
	v-8H73v12.8c0,0.1-0.1,0.3-0.2,0.5c-0.1,0.2-0.2,0.4-0.3,0.5c-0.1,0.2-0.3,0.3-0.4,0.4c-0.1,0.1-0.2,0.2-0.3,0.2h-1.5
	c-0.1,0-0.4-0.1-0.6-0.2c-0.2-0.1-0.6-0.4-0.9-0.7L59.8,19.4z M89.3,18.1H78.9v-0.9h12.8V13H74.6v14.4h4.3v-5.1h10.3V18.1z
	 M99.8,17.2h-6.5V13h17.4v4.2h-6.5v10.2h-4.3V17.2z"/>
<path class="st1" d="M5.9,24.8v6.9l-3-1.9l0,0l-2.7-1.7v-7.8L5.9,24.8z"/>
<path class="st1" d="M22.1,22.6c0,0.4-0.1,5.8-0.1,10.7l-5.3,3.3v-17L22.1,22.6z"/>
<path class="st1" d="M30.3,8.4v8l-8.2,6.2c0,0,0,0,0,0l-5.4-3V0.4L30.3,8.4z"/>
<path class="st1" d="M8.7,22.6c0,0.4,0.1,5.8,0.1,10.7l5.3,3.3v-17L8.7,22.6z"/>
<path class="st1" d="M0.5,8.4v8l8.2,6.2c0,0,0,0,0,0l5.4-3V0.4L0.5,8.4z"/>
<path class="st1" d="M30.3,20.3v7.8l-0.5,0.3l-0.1,0.1l-5.1,3.2v-6.9L30.3,20.3z"/>
</svg>
