<?xml version="1.0" encoding="utf-8"?>
<!-- Generator: Adobe Illustrator 25.4.1, SVG Export Plug-In . SVG Version: 6.00 Build 0)  -->
<svg version="1.1" id="Layer_1" xmlns="http://www.w3.org/2000/svg" xmlns:xlink="http://www.w3.org/1999/xlink" x="0px" y="0px"
	 viewBox="0 0 118.4 37" style="enable-background:new 0 0 118.4 37;" xml:space="preserve">
<style type="text/css">
	.st0{fill:#FFFFFF;}
	.st1{fill:#0052FF;}
</style>
<path class="st0" d="M54.8,17.2H44.5v-0.9h12.8V12H40.2v14.4h17.1v-4.2H44.5v-0.9h10.3V17.2z M63.2,18.5v8h-4.3V13.6
	c0-0.1,0-0.3,0.1-0.5c0.1-0.2,0.2-0.4,0.4-0.5c0.1-0.2,0.3-0.3,0.4-0.4c0.1-0.1,0.3-0.2,0.4-0.2h1.5c0.3,0,0.8,0.3,1.6,0.9l8.9,7.1
	v-8h4.3v12.8c0,0.1-0.1,0.3-0.2,0.5c-0.1,0.2-0.2,0.4-0.3,0.5c-0.1,0.2-0.3,0.3-0.4,0.4c-0.1,0.1-0.2,0.2-0.3,0.2h-1.5
	c-0.1,0-0.4-0.1-0.6-0.2c-0.2-0.1-0.6-0.4-0.9-0.7L63.2,18.5z M92.6,17.2H82.3v-0.9h12.8V12H78v14.4h4.3v-5.1h10.3V17.2z
	 M103.2,16.2h-6.5V12H114v4.2h-6.5v10.2h-4.3V16.2z"/>
<path class="st1" d="M6.7,24.8v6.9l-3-1.9l0,0L1,28.1v-7.8L6.7,24.8z"/>
<path class="st1" d="M22.9,22.6c0,0.4-0.1,5.8-0.1,10.7l-5.3,3.3v-17L22.9,22.6z"/>
<path class="st1" d="M31.1,8.4v8l-8.2,6.2c0,0,0,0,0,0l-5.4-3V0.4L31.1,8.4z"/>
<path class="st1" d="M9.5,22.6c0,0.4,0.1,5.8,0.1,10.7l5.3,3.3v-17L9.5,22.6z"/>
<path class="st1" d="M1.3,8.4v8l8.2,6.2c0,0,0,0,0,0l5.4-3V0.4L1.3,8.4z"/>
<path class="st1" d="M31.1,20.3v7.8l-0.5,0.3l-0.1,0.1l-5.1,3.2v-6.9L31.1,20.3z"/>
</svg>
