<?xml version="1.0" encoding="utf-8"?>
<!-- Generator: Adobe Illustrator 25.4.1, SVG Export Plug-In . SVG Version: 6.00 Build 0)  -->
<svg version="1.1" id="Layer_1" xmlns="http://www.w3.org/2000/svg" xmlns:xlink="http://www.w3.org/1999/xlink" x="0px" y="0px"
	 viewBox="0 0 131.4 46" style="enable-background:new 0 0 131.4 46;" xml:space="preserve">
<style type="text/css">
	.st0{fill:#06182C;}
</style>
<path class="st0" d="M72.2,21.7H61.8v-0.9h12.8v-4.2H57.5V31h17.1v-4.2H61.8v-0.9h10.3V21.7z M80.5,23v8h-4.3V18.2
	c0-0.1,0-0.3,0.1-0.5c0.1-0.2,0.2-0.4,0.4-0.5c0.1-0.2,0.3-0.3,0.4-0.4c0.1-0.1,0.3-0.2,0.4-0.2H79c0.3,0,0.8,0.3,1.6,0.9l8.9,7.1
	v-8h4.3v12.8c0,0.1-0.1,0.3-0.2,0.5c-0.1,0.2-0.2,0.4-0.3,0.5c-0.1,0.2-0.3,0.3-0.4,0.4c-0.1,0.1-0.2,0.2-0.3,0.2H91
	c-0.1,0-0.4-0.1-0.6-0.2c-0.2-0.1-0.6-0.4-0.9-0.7L80.5,23z M110,21.7H99.6v-0.9h12.8v-4.2H95.3V31h4.3v-5.1H110V21.7z M120.5,20.8
	H114v-4.2h17.4v4.2h-6.5V31h-4.3V20.8z"/>
<path class="st0" d="M7.2,30.4v8.6l-3.8-2.3l0,0L0,34.6v-9.7L7.2,30.4z"/>
<path class="st0" d="M27.4,27.7c0,0.5-0.1,7.3-0.1,13.3l-6.7,4.2V24L27.4,27.7z"/>
<path class="st0" d="M37.7,9.9v10l-10.2,7.7c0,0,0,0,0,0L20.6,24V0L37.7,9.9z"/>
<path class="st0" d="M10.7,27.7c0,0.5,0.1,7.3,0.1,13.3l6.7,4.2V24L10.7,27.7z"/>
<path class="st0" d="M0.4,9.9v10l10.2,7.7c0,0,0,0,0,0l6.8-3.7V0L0.4,9.9z"/>
<path class="st0" d="M37.7,24.9v9.7L37.1,35l-0.2,0.1l-6.4,4v-8.6L37.7,24.9z"/>
</svg>
